<svg width="1200" height="680" viewBox="0 0 1200 680" fill="none" xmlns="http://www.w3.org/2000/svg" role="img" aria-labelledby="title desc">
  <title id="title">Aby Daniel Varghese anime cyber MemoLens profile hero</title>
  <desc id="desc">A cinematic anime inspired GitHub profile banner for Aby Daniel Varghese, highlighting MemoLens, full-stack development and mobile product building.</desc>
  <defs>
    <linearGradient id="sky" x1="0" y1="0" x2="1200" y2="680" gradientUnits="userSpaceOnUse">
      <stop offset="0" stop-color="#02030a"/>
      <stop offset="0.42" stop-color="#081120"/>
      <stop offset="1" stop-color="#111827"/>
    </linearGradient>
    <linearGradient id="horizon" x1="83" y1="528" x2="1115" y2="560" gradientUnits="userSpaceOnUse">
      <stop stop-color="#22d3ee" stop-opacity="0"/>
      <stop offset=".22" stop-color="#22d3ee"/>
      <stop offset=".55" stop-color="#fb7185"/>
      <stop offset=".82" stop-color="#facc15"/>
      <stop offset="1" stop-color="#14b8a6" stop-opacity="0"/>
    </linearGradient>
    <linearGradient id="slashInk" x1="861" y1="107" x2="1057" y2="533" gradientUnits="userSpaceOnUse">
      <stop stop-color="#f8fafc"/>
      <stop offset=".48" stop-color="#94a3b8"/>
      <stop offset="1" stop-color="#111827"/>
    </linearGradient>
    <linearGradient id="slashDark" x1="1009" y1="140" x2="1117" y2="547" gradientUnits="userSpaceOnUse">
      <stop stop-color="#192132"/>
      <stop offset=".55" stop-color="#050912"/>
      <stop offset="1" stop-color="#020617"/>
    </linearGradient>
    <linearGradient id="cardEdge" x1="77" y1="71" x2="720" y2="588" gradientUnits="userSpaceOnUse">
      <stop stop-color="#22d3ee"/>
      <stop offset=".34" stop-color="#67e8f9"/>
      <stop offset=".68" stop-color="#fb7185"/>
      <stop offset="1" stop-color="#facc15"/>
    </linearGradient>
    <radialGradient id="cyanGlow" cx="0" cy="0" r="1" gradientUnits="userSpaceOnUse" gradientTransform="translate(873 263) rotate(90) scale(342 370)">
      <stop stop-color="#22d3ee" stop-opacity=".42"/>
      <stop offset=".56" stop-color="#22d3ee" stop-opacity=".08"/>
      <stop offset="1" stop-color="#22d3ee" stop-opacity="0"/>
    </radialGradient>
    <radialGradient id="roseGlow" cx="0" cy="0" r="1" gradientUnits="userSpaceOnUse" gradientTransform="translate(1037 390) rotate(90) scale(300 270)">
      <stop stop-color="#fb7185" stop-opacity=".35"/>
      <stop offset=".58" stop-color="#fb7185" stop-opacity=".07"/>
      <stop offset="1" stop-color="#fb7185" stop-opacity="0"/>
    </radialGradient>
    <filter id="softShadow" x="-30%" y="-30%" width="160%" height="160%" color-interpolation-filters="sRGB">
      <feDropShadow dx="0" dy="30" stdDeviation="24" flood-color="#000000" flood-opacity=".42"/>
    </filter>
    <filter id="neon" x="-40%" y="-40%" width="180%" height="180%" color-interpolation-filters="sRGB">
      <feDropShadow dx="0" dy="0" stdDeviation="11" flood-color="#22d3ee" flood-opacity=".78"/>
    </filter>
    <filter id="roseNeon" x="-40%" y="-40%" width="180%" height="180%" color-interpolation-filters="sRGB">
      <feDropShadow dx="0" dy="0" stdDeviation="12" flood-color="#fb7185" flood-opacity=".72"/>
    </filter>
    <clipPath id="portraitClip">
      <path d="M839 131L1072 131L982 548L742 548L839 131Z"/>
    </clipPath>
    <clipPath id="phoneClip">
      <rect x="621" y="286" width="136" height="238" rx="28"/>
    </clipPath>
    <style>
      .sans { font-family: Inter, ui-sans-serif, system-ui, -apple-system, BlinkMacSystemFont, "Segoe UI", sans-serif; }
      .mono { font-family: ui-monospace, SFMono-Regular, Menlo, Consolas, "Liberation Mono", monospace; }
      .display { font-family: Orbitron, Rajdhani, Eurostile, "Arial Black", Impact, sans-serif; }
      @media (prefers-reduced-motion: no-preference) {
        #slashOne { animation: slashOne 4.8s ease-in-out infinite; }
        #slashTwo { animation: slashTwo 5.8s ease-in-out infinite; }
        #slashThree { animation: slashThree 6.4s ease-in-out infinite; }
        #phone { animation: floatPhone 5.4s ease-in-out infinite; }
        #leftPanel { animation: panelFloat 6.5s ease-in-out infinite; }
        #memoryA { animation: memoryFloat 5.6s ease-in-out infinite; }
        #memoryB { animation: memoryFloat 6.1s ease-in-out infinite .7s; }
        #memoryC { animation: memoryFloat 5.2s ease-in-out infinite 1.1s; }
        #scanLine { animation: scan 3.2s ease-in-out infinite; }
        #titleSheen { animation: sheen 4.5s ease-in-out infinite; }
        #starsA { animation: stars 7s ease-in-out infinite alternate; }
      }
      @keyframes slashOne {
        0%, 100% { transform: translateX(0); opacity: .94; }
        50% { transform: translateX(-28px); opacity: .72; }
      }
      @keyframes slashTwo {
        0%, 100% { transform: translateX(0); opacity: .88; }
        50% { transform: translateX(32px); opacity: 1; }
      }
      @keyframes slashThree {
        0%, 100% { transform: translateX(0); opacity: .38; }
        50% { transform: translateX(42px); opacity: .74; }
      }
      @keyframes floatPhone {
        0%, 100% { transform: translateY(0) rotate(-6deg); }
        50% { transform: translateY(-13px) rotate(-4deg); }
      }
      @keyframes panelFloat {
        0%, 100% { transform: translateY(0); }
        50% { transform: translateY(-8px); }
      }
      @keyframes memoryFloat {
        0%, 100% { transform: translateY(0); }
        50% { transform: translateY(-12px); }
      }
      @keyframes scan {
        0% { transform: translateY(-220px); opacity: 0; }
        18%, 78% { opacity: .9; }
        100% { transform: translateY(245px); opacity: 0; }
      }
      @keyframes sheen {
        0%, 100% { transform: translateX(-250px); opacity: 0; }
        38%, 55% { opacity: .7; }
        82% { transform: translateX(450px); opacity: 0; }
      }
      @keyframes stars {
        from { transform: translateY(0); opacity: .68; }
        to { transform: translateY(-12px); opacity: 1; }
      }
    </style>
  </defs>

  <rect width="1200" height="680" rx="36" fill="url(#sky)"/>
  <rect width="1200" height="680" rx="36" fill="url(#cyanGlow)"/>
  <rect width="1200" height="680" rx="36" fill="url(#roseGlow)"/>

  <g opacity=".78">
    <path d="M0 533H1200M0 584H1200M0 635H1200M92 0V680M184 0V680M276 0V680M368 0V680M460 0V680M552 0V680M644 0V680M736 0V680M828 0V680M920 0V680M1012 0V680M1104 0V680" stroke="#38bdf8" stroke-opacity=".09"/>
    <path d="M66 567C229 508 397 486 587 508C777 530 919 575 1138 499" stroke="url(#horizon)" stroke-width="3"/>
    <path d="M94 612C316 545 461 538 636 566C827 596 967 606 1168 545" stroke="#fb7185" stroke-opacity=".18"/>
  </g>

  <g id="starsA" opacity=".9">
    <circle cx="111" cy="105" r="2" fill="#f8fafc"/>
    <circle cx="212" cy="61" r="1.5" fill="#22d3ee"/>
    <circle cx="487" cy="93" r="1.6" fill="#facc15"/>
    <circle cx="579" cy="52" r="1.4" fill="#f8fafc"/>
    <circle cx="746" cy="74" r="1.7" fill="#fb7185"/>
    <circle cx="1136" cy="104" r="2" fill="#22d3ee"/>
    <path d="M173 151L178 161L189 163L181 171L183 183L173 177L162 183L164 171L156 163L167 161L173 151Z" fill="#facc15" fill-opacity=".7"/>
    <path d="M1059 78L1063 86L1072 88L1066 94L1067 103L1059 99L1051 103L1053 94L1046 88L1055 86L1059 78Z" fill="#22d3ee" fill-opacity=".7"/>
  </g>

  <g id="leftPanel" filter="url(#softShadow)">
    <rect x="68" y="78" width="620" height="492" rx="34" fill="#050914" fill-opacity=".82" stroke="url(#cardEdge)" stroke-width="2"/>
    <rect x="96" y="106" width="564" height="436" rx="28" fill="#020617" fill-opacity=".68" stroke="#1e293b"/>

    <text x="132" y="162" class="mono" font-size="15" font-weight="800" fill="#22d3ee">CURRENT MAIN QUEST</text>
    <g>
      <text x="130" y="238" class="display" font-size="70" font-weight="900" fill="#f8fafc">MEMOLENS</text>
      <rect id="titleSheen" x="112" y="176" width="120" height="75" fill="#22d3ee" fill-opacity=".18" transform="skewX(-18)"/>
    </g>
    <text x="132" y="288" class="sans" font-size="28" font-weight="800" fill="#f8fafc">Aby Daniel Varghese</text>
    <text x="132" y="324" class="sans" font-size="21" font-weight="650" fill="#cbd5e1">MSc IT with Web Development - UWS Paisley</text>
    <text x="132" y="370" class="sans" font-size="18" fill="#94a3b8">Full-stack builder turning rough ideas into mobile apps, APIs,</text>
    <text x="132" y="397" class="sans" font-size="18" fill="#94a3b8">data workflows and AI-assisted product experiences.</text>

    <g transform="translate(132 438)">
      <rect width="146" height="44" rx="22" fill="#22d3ee" fill-opacity=".14" stroke="#22d3ee"/>
      <text x="25" y="28" class="mono" font-size="13" font-weight="850" fill="#67e8f9">REACT NATIVE</text>
      <rect x="160" width="96" height="44" rx="22" fill="#fb7185" fill-opacity=".12" stroke="#fb7185"/>
      <text x="191" y="28" class="mono" font-size="13" font-weight="850" fill="#fda4af">EXPO</text>
      <rect x="270" width="134" height="44" rx="22" fill="#facc15" fill-opacity=".1" stroke="#facc15" stroke-opacity=".78"/>
      <text x="292" y="28" class="mono" font-size="13" font-weight="850" fill="#fde68a">TYPESCRIPT</text>
      <rect x="418" width="106" height="44" rx="22" fill="#14b8a6" fill-opacity=".12" stroke="#14b8a6"/>
      <text x="450" y="28" class="mono" font-size="13" font-weight="850" fill="#5eead4">PYTHON</text>
    </g>
  </g>

  <g id="phone" transform="rotate(-6 690 405)" filter="url(#softShadow)">
    <rect x="606" y="268" width="166" height="278" rx="35" fill="#050914" stroke="#67e8f9" stroke-width="2"/>
    <rect x="621" y="286" width="136" height="238" rx="28" fill="#081120" stroke="#334155"/>
    <g clip-path="url(#phoneClip)">
      <rect x="621" y="286" width="136" height="238" fill="#020617"/>
      <circle cx="689" cy="402" r="104" fill="#22d3ee" fill-opacity=".1"/>
      <rect x="636" y="308" width="106" height="42" rx="16" fill="#111827"/>
      <circle cx="655" cy="329" r="10" fill="#22d3ee" fill-opacity=".35"/>
      <text x="672" y="324" class="sans" font-size="12" font-weight="850" fill="#f8fafc">MemoLens</text>
      <text x="672" y="340" class="mono" font-size="7" fill="#94a3b8">local gallery</text>
      <rect x="636" y="372" width="48" height="60" rx="13" fill="#172033"/>
      <rect x="694" y="372" width="48" height="60" rx="13" fill="#122238"/>
      <rect x="636" y="444" width="48" height="60" rx="13" fill="#111827"/>
      <rect x="694" y="444" width="48" height="60" rx="13" fill="#0f2431"/>
      <path d="M642 420L659 398L674 418L684 406V432H642V420Z" fill="#22d3ee" fill-opacity=".5"/>
      <path d="M700 420L717 394L742 430V432H700V420Z" fill="#fb7185" fill-opacity=".45"/>
      <path d="M642 488L666 462L684 492V504H642V488Z" fill="#facc15" fill-opacity=".38"/>
      <path d="M700 494L721 466L742 498V504H700V494Z" fill="#14b8a6" fill-opacity=".42"/>
      <g id="scanLine">
        <rect x="621" y="286" width="136" height="38" fill="#22d3ee" fill-opacity=".14"/>
        <rect x="621" y="322" width="136" height="2" fill="#67e8f9"/>
      </g>
    </g>
    <rect x="668" y="296" width="40" height="5" rx="2.5" fill="#334155"/>
  </g>

  <g clip-path="url(#portraitClip)">
    <rect x="730" y="110" width="360" height="462" fill="#101827"/>
    <circle cx="920" cy="305" r="210" fill="#f8fafc" fill-opacity=".08"/>
    <path d="M788 279C803 191 866 141 941 145C1032 150 1085 217 1076 300C1068 380 1013 445 934 448C846 452 776 367 788 279Z" fill="#0b1120"/>
    <path d="M813 272C827 209 872 177 937 181C1003 185 1044 229 1044 292C1044 368 1003 421 934 426C857 431 801 344 813 272Z" fill="#d1d5db"/>
    <path d="M835 265C848 223 884 203 936 206C990 209 1020 237 1023 293C1027 360 990 405 934 410C870 416 822 333 835 265Z" fill="#e5e7eb"/>
    <path d="M830 210C862 139 969 122 1032 177C991 166 943 164 898 181C868 192 846 207 830 210Z" fill="#111827"/>
    <path d="M795 271C813 196 866 148 948 153C920 177 877 194 838 224C813 243 802 260 795 271Z" fill="#020617"/>
    <path d="M1017 187C1062 219 1080 268 1066 332C1045 279 1017 244 972 221C990 209 1004 198 1017 187Z" fill="#020617"/>
    <path d="M853 289C875 276 905 278 922 293C897 288 876 289 853 299V289Z" fill="#020617"/>
    <path d="M957 294C978 278 1008 277 1031 292C1004 289 982 291 957 303V294Z" fill="#020617"/>
    <ellipse cx="892" cy="315" rx="19" ry="13" fill="#f8fafc"/>
    <ellipse cx="995" cy="317" rx="19" ry="13" fill="#f8fafc"/>
    <circle cx="892" cy="315" r="8" fill="#22d3ee"/>
    <circle cx="995" cy="317" r="8" fill="#fb7185"/>
    <circle cx="895" cy="311" r="3" fill="#f8fafc"/>
    <circle cx="998" cy="313" r="3" fill="#f8fafc"/>
    <path d="M935 324C925 351 925 365 946 373" stroke="#64748b" stroke-width="4" stroke-linecap="round"/>
    <path d="M895 388C922 403 959 405 990 389C961 435 919 432 895 388Z" fill="#111827"/>
    <path d="M840 376C864 462 1010 461 1048 368C1033 432 986 477 938 481C881 486 846 440 840 376Z" fill="#020617"/>
    <path d="M812 432C851 516 999 527 1066 427C1040 534 955 575 870 548C823 533 799 491 812 432Z" fill="#050914"/>
    <path d="M780 154C834 99 942 88 1020 126C991 98 935 77 855 96C811 106 790 132 780 154Z" fill="#334155"/>
  </g>

  <g id="slashThree">
    <path d="M1072 115H1177L1081 555H975L1072 115Z" fill="#e5e7eb" fill-opacity=".22"/>
  </g>
  <g id="slashOne">
    <path d="M838 116H912L811 553H738L838 116Z" fill="#f8fafc"/>
    <path d="M846 125H899L803 545H750L846 125Z" fill="#22d3ee" fill-opacity=".22"/>
  </g>
  <g id="slashTwo" filter="url(#softShadow)">
    <path d="M1030 111H1135L1032 555H928L1030 111Z" fill="url(#slashDark)"/>
    <path d="M1016 134H1040L944 532H921L1016 134Z" fill="#fb7185" fill-opacity=".6"/>
  </g>
  <path d="M925 128H1014L914 548H825L925 128Z" fill="url(#slashInk)" fill-opacity=".22"/>

  <g id="memoryA" filter="url(#neon)">
    <rect x="780" y="79" width="86" height="56" rx="16" fill="#020617" stroke="#22d3ee"/>
    <path d="M797 118L815 96L832 115L842 104L855 126H797V118Z" fill="#22d3ee" fill-opacity=".45"/>
  </g>
  <g id="memoryB" filter="url(#roseNeon)">
    <rect x="1045" y="63" width="70" height="48" rx="14" fill="#020617" stroke="#fb7185"/>
    <circle cx="1063" cy="81" r="7" fill="#fb7185" fill-opacity=".55"/>
    <path d="M1054 101L1078 83L1105 103H1054Z" fill="#fb7185" fill-opacity=".32"/>
  </g>
  <g id="memoryC">
    <rect x="706" y="160" width="82" height="52" rx="15" fill="#020617" fill-opacity=".85" stroke="#facc15"/>
    <text x="726" y="192" class="mono" font-size="11" font-weight="800" fill="#fde68a">API</text>
    <circle cx="763" cy="186" r="5" fill="#14b8a6"/>
  </g>

  <g transform="translate(732 558)">
    <rect width="386" height="54" rx="27" fill="#020617" fill-opacity=".78" stroke="#334155"/>
    <circle cx="31" cy="27" r="8" fill="#22d3ee"/>
    <text x="53" y="33" class="mono" font-size="13" font-weight="850" fill="#cbd5e1">LOCAL-FIRST MEMORY GALLERY</text>
    <text x="280" y="33" class="mono" font-size="13" font-weight="850" fill="#fb7185">LIVE BUILD</text>
  </g>

  <path d="M0 621C212 563 379 557 593 584C817 613 995 619 1200 557V680H0V621Z" fill="#020617" fill-opacity=".68"/>
</svg>
